<?xml version="1.0" encoding="utf-8"?>
<!-- Generator: Adobe Illustrator 24.2.0, SVG Export Plug-In . SVG Version: 6.00 Build 0)  -->
<svg version="1.1" id="TheLogo" xmlns="http://www.w3.org/2000/svg" xmlns:xlink="http://www.w3.org/1999/xlink" x="0px" y="0px"
	 viewBox="0 0 460.39 360.63" style="enable-background:new 0 0 460.39 360.63;" xml:space="preserve">
<style type="text/css">
	.st0{opacity:0.5;}
	.st1{fill:#7C51A1;}
	.st2{fill:#FFD540;}
	.st3{fill:#9F6EAF;}
	.st4{fill:#5C2D91;}
	.st5{fill:#A790C4;}
	.st6{fill:#9853A1;}
	.st7{fill:#FFFFFF;}
</style>
<g id="TheLogo_4_">
	<g>
		<g id="slogan_5_" class="st0">
			<path class="st1" d="M172.03,199.12l1.23-7.26h1.87l1.45,3.87l1.45-3.87h1.87l1.23,7.26h-1.88l-0.63-4.18l-1.71,4.18h-0.75
				l-1.63-4.18l-0.63,4.18H172.03z"/>
			<path class="st1" d="M192.24,193.46h-2.25v1.21h2.12v1.6h-2.12v1.25h2.25v1.6h-4.13v-7.26h4.13V193.46z"/>
			<path class="st1" d="M199.05,199.12l1.23-7.26h1.87l1.45,3.87l1.45-3.87h1.87l1.23,7.26h-1.88l-0.63-4.18l-1.71,4.18h-0.75
				l-1.63-4.18l-0.63,4.18H199.05z"/>
			<path class="st1" d="M214.8,195.49c0-0.54,0.1-1.04,0.3-1.51c0.2-0.47,0.47-0.87,0.83-1.22c0.35-0.35,0.78-0.62,1.27-0.81
				c0.49-0.2,1.03-0.29,1.62-0.29c0.58,0,1.12,0.1,1.62,0.29s0.92,0.47,1.28,0.81c0.36,0.35,0.63,0.75,0.83,1.22
				c0.2,0.47,0.3,0.97,0.3,1.51c0,0.54-0.1,1.04-0.3,1.51c-0.2,0.47-0.48,0.87-0.83,1.22c-0.36,0.35-0.78,0.62-1.28,0.81
				c-0.49,0.2-1.03,0.29-1.62,0.29c-0.59,0-1.13-0.1-1.62-0.29c-0.49-0.2-0.91-0.47-1.27-0.81c-0.35-0.35-0.63-0.75-0.83-1.22
				C214.9,196.53,214.8,196.03,214.8,195.49z M216.78,195.49c0,0.29,0.05,0.55,0.16,0.8c0.11,0.24,0.26,0.46,0.44,0.64
				c0.19,0.18,0.4,0.32,0.65,0.42c0.25,0.1,0.51,0.15,0.79,0.15c0.28,0,0.54-0.05,0.79-0.15c0.25-0.1,0.47-0.24,0.66-0.42
				c0.19-0.18,0.34-0.39,0.45-0.64c0.11-0.24,0.16-0.51,0.16-0.8c0-0.29-0.05-0.56-0.16-0.8c-0.11-0.24-0.26-0.46-0.45-0.64
				c-0.19-0.18-0.41-0.32-0.66-0.42c-0.25-0.1-0.51-0.15-0.79-0.15c-0.28,0-0.54,0.05-0.79,0.15c-0.25,0.1-0.46,0.24-0.65,0.42
				s-0.33,0.39-0.44,0.64C216.83,194.93,216.78,195.2,216.78,195.49z"/>
			<path class="st1" d="M235.86,199.12h-2.35l-1.8-2.79v2.79h-1.89v-7.26h2.94c0.4,0,0.76,0.06,1.06,0.18
				c0.3,0.12,0.55,0.28,0.75,0.49c0.2,0.21,0.34,0.44,0.44,0.71c0.1,0.27,0.15,0.56,0.15,0.87c0,0.55-0.13,1-0.4,1.34
				c-0.27,0.34-0.66,0.58-1.18,0.7L235.86,199.12z M231.71,195.11h0.36c0.37,0,0.66-0.08,0.86-0.23c0.2-0.15,0.3-0.37,0.3-0.66
				c0-0.29-0.1-0.51-0.3-0.66c-0.2-0.15-0.49-0.23-0.86-0.23h-0.36V195.11z"/>
			<path class="st1" d="M246.89,197.86h-2.7l-0.43,1.26h-2.01l2.77-7.26h2.06l2.77,7.26h-2.01L246.89,197.86z M246.38,196.43
				l-0.85-2.42l-0.85,2.42H246.38z"/>
			<path class="st1" d="M255.94,191.86h2.81c0.67,0,1.17,0.16,1.52,0.48c0.35,0.32,0.52,0.78,0.52,1.39c0,0.37-0.07,0.67-0.2,0.91
				c-0.13,0.24-0.33,0.44-0.6,0.61c0.27,0.05,0.5,0.13,0.69,0.24c0.19,0.11,0.34,0.24,0.46,0.39c0.12,0.15,0.2,0.33,0.26,0.52
				c0.05,0.19,0.08,0.4,0.08,0.62c0,0.34-0.06,0.64-0.18,0.91s-0.29,0.48-0.5,0.66c-0.22,0.18-0.48,0.31-0.79,0.4
				c-0.31,0.09-0.66,0.14-1.04,0.14h-3.03V191.86z M257.83,194.71h0.35c0.59,0,0.89-0.23,0.89-0.7c0-0.47-0.3-0.7-0.89-0.7h-0.35
				V194.71z M257.83,197.66h0.41c0.47,0,0.82-0.06,1.02-0.18c0.21-0.12,0.31-0.32,0.31-0.59c0-0.27-0.1-0.47-0.31-0.59
				c-0.21-0.12-0.55-0.18-1.02-0.18h-0.41V197.66z"/>
			<path class="st1" d="M270.28,191.86v5.67h2.26v1.6h-4.15v-7.26H270.28z"/>
			<path class="st1" d="M283.43,193.46h-2.25v1.21h2.12v1.6h-2.12v1.25h2.25v1.6h-4.13v-7.26h4.13V193.46z"/>
			<path class="st1" d="M302.38,193.46v5.66h-1.89v-5.66h-1.55v-1.6h4.99v1.6H302.38z"/>
			<path class="st1" d="M310.15,195.49c0-0.54,0.1-1.04,0.3-1.51c0.2-0.47,0.47-0.87,0.83-1.22c0.35-0.35,0.78-0.62,1.27-0.81
				c0.49-0.2,1.03-0.29,1.62-0.29c0.58,0,1.12,0.1,1.62,0.29s0.92,0.47,1.28,0.81c0.36,0.35,0.63,0.75,0.83,1.22s0.3,0.97,0.3,1.51
				c0,0.54-0.1,1.04-0.3,1.51c-0.2,0.47-0.48,0.87-0.83,1.22c-0.36,0.35-0.78,0.62-1.28,0.81c-0.49,0.2-1.03,0.29-1.62,0.29
				c-0.59,0-1.13-0.1-1.62-0.29c-0.49-0.2-0.91-0.47-1.27-0.81c-0.35-0.35-0.63-0.75-0.83-1.22
				C310.25,196.53,310.15,196.03,310.15,195.49z M312.13,195.49c0,0.29,0.05,0.55,0.16,0.8c0.11,0.24,0.26,0.46,0.44,0.64
				c0.19,0.18,0.4,0.32,0.65,0.42c0.25,0.1,0.51,0.15,0.79,0.15c0.28,0,0.54-0.05,0.79-0.15c0.25-0.1,0.47-0.24,0.66-0.42
				c0.19-0.18,0.34-0.39,0.45-0.64c0.11-0.24,0.16-0.51,0.16-0.8c0-0.29-0.05-0.56-0.16-0.8c-0.11-0.24-0.26-0.46-0.45-0.64
				c-0.19-0.18-0.41-0.32-0.66-0.42c-0.25-0.1-0.51-0.15-0.79-0.15c-0.28,0-0.54,0.05-0.79,0.15c-0.25,0.1-0.46,0.24-0.65,0.42
				c-0.19,0.18-0.33,0.39-0.44,0.64C312.18,194.93,312.13,195.2,312.13,195.49z"/>
			<path class="st1" d="M327.06,191.86v3.95c0,0.21,0.01,0.43,0.02,0.65c0.02,0.22,0.06,0.42,0.15,0.6
				c0.08,0.18,0.21,0.33,0.38,0.44c0.17,0.11,0.42,0.17,0.73,0.17c0.31,0,0.56-0.06,0.73-0.17c0.17-0.11,0.3-0.26,0.38-0.44
				c0.08-0.18,0.13-0.38,0.15-0.6c0.02-0.22,0.02-0.44,0.02-0.65v-3.95h1.88v4.21c0,1.13-0.26,1.96-0.77,2.48
				c-0.52,0.52-1.31,0.78-2.38,0.78c-1.07,0-1.87-0.26-2.39-0.78c-0.52-0.52-0.78-1.35-0.78-2.48v-4.21H327.06z"/>
			<path class="st1" d="M344.84,199.12h-2.35l-1.8-2.79v2.79h-1.89v-7.26h2.94c0.4,0,0.76,0.06,1.06,0.18
				c0.3,0.12,0.55,0.28,0.75,0.49c0.2,0.21,0.34,0.44,0.44,0.71c0.1,0.27,0.15,0.56,0.15,0.87c0,0.55-0.13,1-0.4,1.34
				c-0.27,0.34-0.66,0.58-1.18,0.7L344.84,199.12z M340.69,195.11h0.36c0.37,0,0.66-0.08,0.86-0.23c0.2-0.15,0.3-0.37,0.3-0.66
				c0-0.29-0.1-0.51-0.3-0.66c-0.2-0.15-0.49-0.23-0.86-0.23h-0.36V195.11z"/>
		</g>
		<g id="name_4_">
			<path class="st1" d="M173.54,166.86h-5.45V162h17.17v4.86h-5.45v13.74h-6.27V166.86z"/>
			<path class="st1" d="M186.66,171.3c0-5.63,4.44-9.73,10.5-9.73c6.06,0,10.5,4.09,10.5,9.73s-4.44,9.73-10.5,9.73
				C191.09,181.02,186.66,176.93,186.66,171.3z M201.32,171.3c0-2.9-1.86-4.65-4.17-4.65c-2.31,0-4.17,1.75-4.17,4.65
				c0,2.9,1.86,4.65,4.17,4.65C199.46,175.95,201.32,174.2,201.32,171.3z"/>
			<path class="st1" d="M210.56,172.23V162h6.27v10.04c0,2.84,1.09,3.91,2.84,3.91c1.75,0,2.84-1.06,2.84-3.91V162h6.16v10.23
				c0,5.58-3.35,8.8-9.06,8.8C213.9,181.02,210.56,177.81,210.56,172.23z"/>
			<path class="st1" d="M285.29,177.36h-7.07l-1.25,3.24h-6.38l8.13-18.6h6.16l8.13,18.6h-6.48L285.29,177.36z M283.56,172.84
				l-1.81-4.68l-1.81,4.68H283.56z"/>
			<path class="st1" d="M313.14,175.47c0,3.24-2.74,5.13-7.87,5.13h-10.47V162h9.94c5.13,0,7.52,2.05,7.52,4.86
				c0,1.73-0.88,3.16-2.58,4.01C311.87,171.67,313.14,173.27,313.14,175.47z M300.98,166.38v2.76h2.92c1.41,0,2.05-0.48,2.05-1.38
				c0-0.9-0.64-1.38-2.05-1.38H300.98z M306.82,174.75c0-0.96-0.69-1.46-2.07-1.46h-3.77v2.92h3.77
				C306.13,176.21,306.82,175.71,306.82,174.75z"/>
			<path class="st1" d="M316.13,162h6.27v13.74h8.4v4.86h-14.67V162z"/>
			<path class="st1" d="M348.77,175.87v4.73h-15.46V162h15.12v4.73h-8.95v2.18h7.87v4.52h-7.87v2.44H348.77z"/>
			<g>
				<polygon class="st1" points="263.02,162 253.17,162 253.17,166.86 258.79,166.86 				"/>
				<polygon class="st1" points="269.57,165.85 269.57,162 266.06,162 252.91,177.12 252.91,180.6 269.99,180.6 269.99,175.74 
					261.07,175.74 				"/>
			</g>
			<path class="st1" d="M240.3,175.92h-1.7v4.68h-6.27V162h8.95c5.18,0,8.48,2.71,8.48,7.01c0,2.68-1.28,4.7-3.51,5.85l3.91,5.74
				h-6.7L240.3,175.92z M240.89,166.84h-2.29v4.36h2.29c1.73,0,2.55-0.82,2.55-2.18C243.44,167.66,242.61,166.84,240.89,166.84z"/>
		</g>
	</g>
	<g id="Icon_4_">
		<polygon class="st2" points="132.27,203.97 156.02,203.97 156.02,203.97 156.02,179.57 		"/>
		<polygon class="st3" points="131.58,180.77 132.27,203.97 132.27,203.97 156.02,180.22 156.02,156.47 155.59,156.47 		"/>
		<polygon class="st4" points="108.52,156.47 108.52,180.22 120.65,168.35 		"/>
		<polygon class="st5" points="120.39,168.35 132.61,156.47 108.52,156.47 108.52,156.47 		"/>
		<polygon class="st6" points="132.27,156.47 108.52,180.22 108.52,180.22 131.58,180.77 156.02,156.47 		"/>
		<rect x="108.52" y="180.22" class="st4" width="23.75" height="23.75"/>
		<polygon class="st7" points="140.9,164.94 120.85,185 114.49,184.99 121.01,191.47 132.27,180.22 132.27,194.27 136.96,189.6 
			136.96,175.51 147.51,164.94 		"/>
	</g>
</g>
</svg>
